<mxfile host="app.diagrams.net" agent="Mozilla/5.0 (Windows NT 10.0; Win64; x64) AppleWebKit/537.36 (KHTML, like Gecko) Chrome/130.0.0.0 Safari/537.36" version="24.8.4">
  <diagram name="Page-1" id="N36plUtxKdYND1x7Mm6b">
    <mxGraphModel>
      <root>
        <mxCell id="0" />
        <mxCell id="1" parent="0" />
        <mxCell id="2" value="ThirdPartyServices" style="whiteSpace=wrap;strokeWidth=2;" vertex="1" parent="1">
          <mxGeometry x="236" y="8" width="206" height="416" as="geometry" />
        </mxCell>
        <mxCell id="3" value="GameUI" style="whiteSpace=wrap;strokeWidth=2;" vertex="1" parent="1">
          <mxGeometry x="492" y="434" width="204" height="416" as="geometry" />
        </mxCell>
        <mxCell id="4" value="GameLogic" style="whiteSpace=wrap;strokeWidth=2;" vertex="1" parent="1">
          <mxGeometry x="236" y="444" width="206" height="644" as="geometry" />
        </mxCell>
        <mxCell id="5" value="GameAssets" style="whiteSpace=wrap;strokeWidth=2;" vertex="1" parent="1">
          <mxGeometry x="492" y="870" width="204" height="416" as="geometry" />
        </mxCell>
        <mxCell id="6" value="GameEngine" style="whiteSpace=wrap;strokeWidth=2;" vertex="1" parent="1">
          <mxGeometry x="8" y="8" width="178" height="1051" as="geometry" />
        </mxCell>
        <mxCell id="7" value="GamePlay" style="rounded=1;arcSize=40;strokeWidth=2" vertex="1" parent="1">
          <mxGeometry x="46" y="836" width="102" height="49" as="geometry" />
        </mxCell>
        <mxCell id="8" value="PhysicsEngine" style="rounded=1;arcSize=40;strokeWidth=2" vertex="1" parent="1">
          <mxGeometry x="33" y="142" width="128" height="49" as="geometry" />
        </mxCell>
        <mxCell id="9" value="AIEngine" style="rounded=1;arcSize=40;strokeWidth=2" vertex="1" parent="1">
          <mxGeometry x="51" y="43" width="93" height="49" as="geometry" />
        </mxCell>
        <mxCell id="10" value="AudioEngine" style="rounded=1;arcSize=40;strokeWidth=2" vertex="1" parent="1">
          <mxGeometry x="38" y="241" width="119" height="49" as="geometry" />
        </mxCell>
        <mxCell id="11" value="LevelMap" style="rounded=1;arcSize=40;strokeWidth=2" vertex="1" parent="1">
          <mxGeometry x="545" y="905" width="97" height="49" as="geometry" />
        </mxCell>
        <mxCell id="12" value="Characters" style="rounded=1;arcSize=40;strokeWidth=2" vertex="1" parent="1">
          <mxGeometry x="540" y="1004" width="108" height="49" as="geometry" />
        </mxCell>
        <mxCell id="13" value="SoundEffects" style="rounded=1;arcSize=40;strokeWidth=2" vertex="1" parent="1">
          <mxGeometry x="532" y="1103" width="123" height="49" as="geometry" />
        </mxCell>
        <mxCell id="14" value="Animations" style="rounded=1;arcSize=40;strokeWidth=2" vertex="1" parent="1">
          <mxGeometry x="538" y="1202" width="111" height="49" as="geometry" />
        </mxCell>
        <mxCell id="15" value="EnemyBehavior" style="rounded=1;arcSize=40;strokeWidth=2" vertex="1" parent="1">
          <mxGeometry x="269" y="1004" width="140" height="49" as="geometry" />
        </mxCell>
        <mxCell id="16" value="PuzzleLogic" style="rounded=1;arcSize=40;strokeWidth=2" vertex="1" parent="1">
          <mxGeometry x="282" y="905" width="114" height="49" as="geometry" />
        </mxCell>
        <mxCell id="17" value="PlayerInput" style="rounded=1;arcSize=40;strokeWidth=2" vertex="1" parent="1">
          <mxGeometry x="283" y="519" width="113" height="49" as="geometry" />
        </mxCell>
        <mxCell id="18" value="CutsceneTriggers" style="rounded=1;arcSize=40;strokeWidth=2" vertex="1" parent="1">
          <mxGeometry x="263" y="766" width="152" height="49" as="geometry" />
        </mxCell>
        <mxCell id="19" value="HealthDisplay" style="rounded=1;arcSize=40;strokeWidth=2" vertex="1" parent="1">
          <mxGeometry x="529" y="469" width="129" height="49" as="geometry" />
        </mxCell>
        <mxCell id="20" value="InventoryDisplay" style="rounded=1;arcSize=40;strokeWidth=2" vertex="1" parent="1">
          <mxGeometry x="519" y="568" width="149" height="49" as="geometry" />
        </mxCell>
        <mxCell id="21" value="ObjectiveTracker" style="rounded=1;arcSize=40;strokeWidth=2" vertex="1" parent="1">
          <mxGeometry x="517" y="667" width="154" height="49" as="geometry" />
        </mxCell>
        <mxCell id="22" value="DialogueBoxes" style="rounded=1;arcSize=40;strokeWidth=2" vertex="1" parent="1">
          <mxGeometry x="527" y="766" width="133" height="49" as="geometry" />
        </mxCell>
        <mxCell id="23" value="AIPlugin" style="rounded=1;arcSize=40;strokeWidth=2" vertex="1" parent="1">
          <mxGeometry x="295" y="43" width="89" height="49" as="geometry" />
        </mxCell>
        <mxCell id="24" value="PhysicsSimulation" style="rounded=1;arcSize=40;strokeWidth=2" vertex="1" parent="1">
          <mxGeometry x="261" y="142" width="156" height="49" as="geometry" />
        </mxCell>
        <mxCell id="25" value="AudioLibrary" style="rounded=1;arcSize=40;strokeWidth=2" vertex="1" parent="1">
          <mxGeometry x="278" y="241" width="123" height="49" as="geometry" />
        </mxCell>
        <mxCell id="26" value="Analytics" style="rounded=1;arcSize=40;strokeWidth=2" vertex="1" parent="1">
          <mxGeometry x="291" y="340" width="96" height="49" as="geometry" />
        </mxCell>
        <mxCell id="27" value="" style="curved=1;startArrow=none;endArrow=block;exitX=0.63;exitY=0.99;entryX=0;entryY=0.51;" edge="1" parent="1" source="7" target="15">
          <mxGeometry relative="1" as="geometry">
            <Array as="points">
              <mxPoint x="186" y="1029" />
            </Array>
          </mxGeometry>
        </mxCell>
        <mxCell id="28" value="" style="curved=1;startArrow=none;endArrow=block;exitX=0.81;exitY=0.99;entryX=0;entryY=0.51;" edge="1" parent="1" source="7" target="16">
          <mxGeometry relative="1" as="geometry">
            <Array as="points">
              <mxPoint x="186" y="930" />
            </Array>
          </mxGeometry>
        </mxCell>
        <mxCell id="29" value="" style="curved=1;startArrow=none;endArrow=block;exitX=0.57;exitY=-0.01;entryX=0;entryY=0.49;" edge="1" parent="1" source="7" target="17">
          <mxGeometry relative="1" as="geometry">
            <Array as="points">
              <mxPoint x="186" y="543" />
            </Array>
          </mxGeometry>
        </mxCell>
        <mxCell id="30" value="" style="curved=1;startArrow=none;endArrow=block;exitX=0.81;exitY=-0.01;entryX=0;entryY=0.51;" edge="1" parent="1" source="7" target="18">
          <mxGeometry relative="1" as="geometry">
            <Array as="points">
              <mxPoint x="186" y="791" />
            </Array>
          </mxGeometry>
        </mxCell>
        <mxCell id="31" value="" style="curved=1;startArrow=none;endArrow=block;exitX=1;exitY=0.5;entryX=0;entryY=0.5;" edge="1" parent="1" source="8" target="24">
          <mxGeometry relative="1" as="geometry">
            <Array as="points" />
          </mxGeometry>
        </mxCell>
        <mxCell id="32" value="" style="curved=1;startArrow=none;endArrow=block;exitX=0.99;exitY=0.5;entryX=-0.01;entryY=0.5;" edge="1" parent="1" source="9" target="23">
          <mxGeometry relative="1" as="geometry">
            <Array as="points" />
          </mxGeometry>
        </mxCell>
        <mxCell id="33" value="" style="curved=1;startArrow=none;endArrow=block;exitX=0.99;exitY=0.5;entryX=0;entryY=0.5;" edge="1" parent="1" source="10" target="25">
          <mxGeometry relative="1" as="geometry">
            <Array as="points" />
          </mxGeometry>
        </mxCell>
        <mxCell id="34" value="" style="curved=1;startArrow=none;endArrow=block;exitX=1;exitY=0.51;entryX=0;entryY=0.51;" edge="1" parent="1" source="15" target="12">
          <mxGeometry relative="1" as="geometry">
            <Array as="points" />
          </mxGeometry>
        </mxCell>
        <mxCell id="35" value="" style="curved=1;startArrow=none;endArrow=block;exitX=1;exitY=0.51;entryX=0;entryY=0.51;" edge="1" parent="1" source="16" target="11">
          <mxGeometry relative="1" as="geometry">
            <Array as="points" />
          </mxGeometry>
        </mxCell>
        <mxCell id="36" value="" style="curved=1;startArrow=none;endArrow=block;exitX=0.95;exitY=-0.01;entryX=0;entryY=0.51;" edge="1" parent="1" source="17" target="19">
          <mxGeometry relative="1" as="geometry">
            <Array as="points">
              <mxPoint x="442" y="494" />
            </Array>
          </mxGeometry>
        </mxCell>
        <mxCell id="37" value="" style="curved=1;startArrow=none;endArrow=block;exitX=0.95;exitY=0.99;entryX=0;entryY=0.51;" edge="1" parent="1" source="17" target="20">
          <mxGeometry relative="1" as="geometry">
            <Array as="points">
              <mxPoint x="442" y="593" />
            </Array>
          </mxGeometry>
        </mxCell>
        <mxCell id="38" value="" style="curved=1;startArrow=none;endArrow=block;exitX=1;exitY=0.51;entryX=0;entryY=0.51;" edge="1" parent="1" source="18" target="22">
          <mxGeometry relative="1" as="geometry">
            <Array as="points" />
          </mxGeometry>
        </mxCell>
      </root>
    </mxGraphModel>
  </diagram>
</mxfile>
